<svg xmlns="http://www.w3.org/2000/svg" width="886.82762" height="709.09254" viewBox="0 0 886.82762 709.09254" xmlns:xlink="http://www.w3.org/1999/xlink"><path d="M885.29852,677.33557c-2.15625,7.28094-54.10492,16.27973-86.42297,23.97556-22.52589,5.36404-45.61111,8.02234-68.76542,7.76427l-574.28021-6.4007c-36.94397-.41176-73.54864-7.10573-108.24732-19.79541L0,665.47783c49.31-13.59,202.12-23.42028,255.96002-27.46025,45.84998-17.65002,95.44995-35.89502,149.87-34.85501,59.76001,1.13998,112.95001,25.52499,172.66998,27.23499,48.37,1.38,20.88279-.07885,65.10282-11.92386,44.21997-11.84,25.52565,6.95688,71.84566,8.01187,41.01996,.935,81.70001-16.01498,120.90009-8.69998,38.5,7.17999,56,35.72,48.94995,59.54999Z" fill="#e4e5e6"/><path d="M584.02709,680.93732H160.33227c-2.36621,0-4.29102-1.9248-4.29102-4.29102s1.9248-4.29199,4.29102-4.29199h423.69482c2.36621,0,4.29102,1.92578,4.29102,4.29199s-1.9248,4.29102-4.29102,4.29102Z" fill="#cfd1d2"/><path d="M372.08764,700.8133H175.62914c-2.36621,0-4.29102-1.9248-4.29102-4.29102s1.9248-4.29102,4.29102-4.29102h196.4585c2.36621,0,4.2915,1.9248,4.2915,4.29102s-1.92529,4.29102-4.2915,4.29102Z" fill="#cfd1d2"/><path d="M495.12182,667.03009H71.42699c-2.36621,0-4.29102-1.9248-4.29102-4.29102s1.9248-4.29199,4.29102-4.29199H495.12182c2.36621,0,4.29102,1.92578,4.29102,4.29199s-1.9248,4.29102-4.29102,4.29102Z" fill="#cfd1d2"/><path d="M562.71206,654.17209c.07751,6.00694,.15503,12.01388,.23254,18.02082,.0176,1.36429,1.1314,2.48234,2.5,2.5,11.31749,.14607,22.63499,.29214,33.95248,.43821,5.65861,.07303,11.3174,.16736,16.97624,.2191,2.18174,.01995,4.41768-.10063,6.39818-1.1072,2.11494-1.0749,3.42405-3.16011,3.72393-5.47472,.33387-2.57692-.46417-5.08209-1.50481-7.40804-.98219-2.19531-2.45959-4.61942-1.60408-7.07121,.44482-1.27479-.50649-2.73469-1.7461-3.0753-1.37745-.37848-2.62886,.46665-3.0753,1.7461-1.66431,4.76971,1.68273,8.55192,2.78731,12.93623,.3134,1.24397,.53492,2.92591-.64904,3.77743-1.40295,1.00903-3.71409,.68466-5.32871,.66382-10.65176-.13748-21.30352-.27495-31.95527-.41243-5.99161-.07733-11.98323-.15466-17.97484-.23199l2.5,2.5c-.07751-6.00694-.15503-12.01388-.23254-18.02082-.04149-3.21494-5.0416-3.22385-5,0h0Z" fill="#2f2e43"/><path d="M447.44855,621.02373c-2.32265,5.54027-4.64531,11.08055-6.96796,16.62082-.38505,.91846,.23987,2.41429,1.1489,2.82328,10.47365,4.71225,20.94729,9.42449,31.42094,14.13674,5.20426,2.34147,10.38414,4.74962,15.61894,7.02189,2.47062,1.07242,5.22219,1.98758,7.88378,1.00461,2.14114-.79076,3.57483-2.49923,4.40003-4.57979,.82661-2.08411,.9181-4.36703,.86439-6.58155-.04897-2.01895-.32408-4.68837,1.17255-6.29422,2.19199-2.35195-1.33602-5.89556-3.53553-3.53553-3.20884,3.44301-2.39018,7.77626-2.6432,12.05466-.08037,1.35904-.36657,3.09405-1.3986,3.93839-1.25605,1.02763-3.45699,.01653-4.81135-.58476-9.88793-4.3899-19.73337-8.87833-29.59943-13.31722-5.6163-2.52686-11.23261-5.05371-16.84891-7.58057l1.1489,2.82328c2.32265-5.54027,4.64531-11.08055,6.96796-16.62082,.52228-1.24581-.56282-2.75016-1.7461-3.0753-1.44191-.39619-2.55104,.49557-3.0753,1.7461h0Z" fill="#2f2e43"/><g><polygon points="552.94058 601.46169 554.28766 630.71339 552.93861 638.80768 557.66031 648.25105 594.75927 652.29821 596.78285 634.76052 577.22159 624.64264 576.65297 608.11421 552.94058 601.46169" fill="#ffaeb0"/><path d="M583.1912,621.30679l1.99525-44.62242-43.23033-2.99287s10.9825,80.63032,10.9825,84.00295c0,3.37262,64.08002,3.37262,73.72256,2.02358,9.64254-1.34904,6.54609-10.11791,6.54609-10.11791l-39.98771-18.92865-10.02835-9.36469Z" fill="#2f2e43"/></g><g><polygon points="458.5942 570.71903 450.50909 598.86343 446.6406 606.1003 448.09185 616.5581 481.94451 632.26509 489.4742 616.29733 474.1797 600.45144 483.77381 575.57316 458.5942 570.71903" fill="#ffaeb0"/><path d="M482.7452,606.04889l6.72901-39.99159-41.61366-10.38597s-6.18488,65.1272-7.26421,68.32245c-1.07933,3.19525,59.63062,23.70259,69.19777,25.51037s9.43983-7.49086,9.43983-7.49086l-29.75972-25.71597-6.72901-10.24844Z" fill="#2f2e43"/></g><polygon points="584.65086 275.14332 492.48071 284.25316 446.99541 593.09978 476.44553 597.63445 541.52811 381.4734 551.26726 621.30679 578.15291 621.30679 605.32616 327.71764 584.65086 275.14332" fill="#2f2e43"/><polygon points="550.72342 113.74578 552.1936 137.62055 507.61232 139.88207 521.4177 108.42675 550.72342 113.74578" fill="#ffaeb0"/><path d="M554.48183,113.01132s-27.54327,5.87489-47.93912-6.53997c0,0-2.60712,20.285,6.70403,29.15276s17.26553,57.19706,17.26553,57.19706l29.7336-1.77355,2.66033-62.07433s12.85825-15.51858-8.42437-15.96197Z" fill="#6c63ff"/><path d="M480.43602,255.78227s-24.60804,105.08297-21.94771,135.67674c.63365,7.28699,.62587,14.30986,.24625,20.78102-1.11094,18.93795,14.75377,34.49154,33.66901,33.04449,49.23816-3.76682,126.58141-11.26647,127.0346-21.23648,.66508-14.63181-24.2755-154.96412-42.23271-167.60068l15.62943-120.37985-26.26773-17.56319s-30.24694,12.24253-30.58813,56.13795c0,0-15.96619-52.41851-29.43632-56.13795s-48.71948,34.41193-48.71948,34.41193l22.61279,102.86603Z" fill="#3f3d58"/><path id="uuid-5b5ade51-0aa6-43f5-8e19-e5a8a5e2e288-57" d="M435.91892,368.62442c-1.41492,10.7297-8.2909,18.60952-15.35704,17.6001-7.06612-1.00941-11.64543-10.52478-10.22851-21.25809,.50514-4.29621,2.06734-8.39228,4.55592-11.94551l6.58924-45.37739,21.97567,3.87349-8.82895,44.32282c1.47689,4.12052,1.92049,8.50436,1.29368,12.78456,0,0-.00001,.00002,0,.00001Z" fill="#ffaeb0"/><path d="M439.19307,353.78867l-24.90562-5.63507,.02068-.41885,4.86013-99.90063,.02761-.07335,33.87483-90.14988c2.36457-6.2955,8.47155-10.44364,15.19556-10.32253h0c4.92469,.09047,9.45383,2.39381,12.42144,6.32381,2.96952,3.93043,3.95007,8.91622,2.6894,13.67827l-30.87451,89.24136-13.30951,97.25687Z" fill="#3f3d58"/><path id="uuid-4542812e-54ca-47b5-b7f1-5422ae1ff361-58" d="M593.96423,352.8989c.35661,10.81672,6.42727,19.33245,13.55832,19.02036,7.13103-.31208,12.6208-9.33288,12.26255-20.15338-.08168-4.32503-1.23495-8.55448-3.36334-12.33448l-2.11057-45.8047-22.24949,1.70125,4.44285,44.9747c-1.87359,3.95595-2.74466,8.27522-2.54033,12.59624,0,0,0,.00002,0,.00001Z" fill="#ffaeb0"/><path d="M592.15995,337.81289l-.05664-.50293-11.21875-100.47705-14.41895-88.94971c-.78809-4.8623,.6748-9.72754,4.01562-13.34863,3.34082-3.62012,8.07129-5.46484,12.98145-5.07666h0c6.7041,.53906,12.375,5.26562,14.1123,11.76221l28.11719,192.40137-33.53223,4.19141Z" fill="#3f3d58"/><circle cx="531.37907" cy="83.91944" r="36.16911" fill="#ffaeb0"/><path d="M548.58687,37.05959c7.96672,2.80007,12.52544,4.40233,16.70133,8.42524,7.05342,6.79534,8.21761,15.87636,9.2992,24.31405,.8462,6.60085,1.94029,15.13533-1.92511,24.88615-1.31913,3.32758-7.71777,18.15326-19.96542,20.02686-2.4053,.3679-8.05239,.46465-6.42467-.73705,15.06396-11.12137,21.4929-17.83537,20.96583-34.97528-.32742-10.65001-16.60097-22.14849-26.26388-24.21553-4.07055-.87063-9.48981-.07526-13.3758,3.11494-8.12136,6.66724-7.77489,34.23762-16.33853,40.00096-3.52176,2.3702-1.17507-14.31417-3.65672-11.60851-4.89639,5.33862-1.75557,13.51426-.87571,16.6278,4.1736,14.76858,12.04232,16.21409,16.11875,28.8257,4.40118,13.61598-1.13798,26.43531-2.45157,29.4752-2.28483,5.28816-6.20648,14.36372-15.16578,18.71771-11.37223,5.5265-20.33612-1.67009-25.6232,4.49957-2.95561,3.44905-1.35687,7.10183-6.69492,17.82973-1.74257,3.50193-2.61386,5.25314-3.3852,5.19098-3.65019-.29391-9.56007-29.51241-.00178-56.72345,4.01143-11.41949,7.94138-22.60769,18.47551-31.35645,5.56941-4.62529,10.24046-6.28973,11.57001-11.69111,1.89938-7.71658-5.98779-11.01016-7.56886-23.18566-1.08113-8.32685-1.83966-20.23586,1.10036-27.86893,2.77618-7.20825,5.18626-13.46551,11.49455-19.13888,1.51506-1.36269,13.74548-10.62535,26.71331-10.88664,5.9702-.12011,10.35646,8.01986,17.27833,10.45261h0Z" fill="#2f2e43"/><path d="M495.84028,96.03121c-.29667-10.71235,3.51566-26.67173,13.00839-31.64471,3.24003-1.69736,6.82135-3.64049,10.67829-6.6407,5.01535-3.90131,10.67991-7.3727,17.10841-9.00853s13.73442-1.2167,19.00425,2.12896,21.93777,16.84978,19.04683,22.09163c.4923-1.2363,.07693-3.25284,.7181-5.45003,4.97696-17.05504-6.8606-30.89539-25.13492-35.40848-3.65506-.90266-5.71942-4.3776-7.53825-5.49367-4.62915-2.84052-13.16393-6.20892-22.23868-7.16324,3.38049-7.32605-2.2081-16.06181-10.67605-18.55854s-18.46136,.52235-24.86,6.21-9.56301,13.59401-10.43442,21.37912c-.43883,3.92051-.2505,8.13988,2.36958,11.27803s8.39887,4.48803,11.86737,1.84727c2.60174,15.55914-8.43445,49.44185,7.08108,54.4329h0Z" fill="#6c63ff"/><circle cx="550.45631" cy="235.80368" r="6.12588" fill="#6c63ff"/><circle cx="553.21736" cy="260.67282" r="6.12588" fill="#6c63ff"/><polygon points="268.33696 131.72719 261.8768 153.49484 302.62682 165.11047 296.57808 133.06824 268.33696 131.72719" fill="#ffaeb0"/><path d="M316.36232,674.77338l.23254,18.02082c.0176,1.36429,1.1314,2.48234,2.5,2.5,11.31749,.14607,22.63499,.29214,33.95248,.43821,5.65861,.07303,11.3174,.16736,16.97624,.2191,2.18174,.01995,4.41768-.10063,6.39818-1.1072,2.11494-1.0749,3.42405-3.16011,3.72393-5.47472,.33387-2.57692-.46417-5.08209-1.50481-7.40804-.98219-2.19531-2.45959-4.61942-1.60408-7.07121,.44482-1.27479-.50649-2.73469-1.7461-3.0753-1.37745-.37848-2.62886,.46665-3.0753,1.7461-1.66431,4.76971,1.68273,8.55192,2.78731,12.93623,.3134,1.24397,.53492,2.92591-.64904,3.77743-1.40295,1.00903-3.71409,.68466-5.32871,.66382-10.65176-.13748-21.30352-.27495-31.95527-.41243-5.99161-.07733-11.98323-.15466-17.97484-.23199l2.5,2.5-.23254-18.02082c-.04149-3.21494-5.0416-3.22385-5,0h0Z" fill="#2f2e43"/><path d="M201.09881,641.62502c-2.32265,5.54027-4.64531,11.08055-6.96796,16.62082-.38505,.91846,.23987,2.41429,1.1489,2.82328,10.47365,4.71225,20.94729,9.42449,31.42094,14.13674,5.20426,2.34147,10.38414,4.74962,15.61894,7.02189,2.47062,1.07242,5.22219,1.98758,7.88378,1.00461,2.14114-.79076,3.57483-2.49923,4.40003-4.57979,.82661-2.08411,.9181-4.36703,.86439-6.58155-.04897-2.01895-.32408-4.68837,1.17255-6.29422,2.19199-2.35195-1.33602-5.89556-3.53553-3.53553-3.20884,3.44301-2.39018,7.77626-2.6432,12.05466-.08037,1.35904-.36657,3.09405-1.3986,3.93839-1.25605,1.02763-3.45699,.01653-4.81135-.58476-9.88793-4.3899-19.73337-8.87833-29.59943-13.31722-5.6163-2.52686-11.23261-5.05371-16.84891-7.58057l1.1489,2.82328c2.32265-5.54027,4.64531-11.08055,6.96796-16.62082,.52228-1.24581-.56282-2.75016-1.7461-3.0753-1.44191-.39619-2.55104,.49557-3.0753,1.7461h0Z" fill="#2f2e43"/><polygon points="338.30113 295.74462 246.13097 304.85446 200.64567 613.70108 230.09579 618.23575 295.17837 402.07469 304.91753 641.90808 331.80318 641.90808 358.97642 348.31893 338.30113 295.74462" fill="#cfd1d2"/><path d="M308.13209,126.2571s-27.54327,5.87489-47.93912-6.53997c0,0-2.60712,20.285,6.70403,29.15276,9.31115,8.86776,17.26553,57.19706,17.26553,57.19706l29.7336-1.77355,2.66033-62.07433s12.85825-15.51858-8.42437-15.96197Z" fill="#e4e5e6"/><path d="M212.64952,351.43565c.0739,.84983,.13907,1.69606,.19595,2.53825,1.99822,29.58772,27.55162,51.96292,57.09343,49.37307,47.07814-4.1272,103.27438-10.8282,103.66048-19.3223,.66508-14.63181-27.11423-227.35588-27.11423-227.35588l-28.26834-16.8547-18.26743,16.45659s-26.28627-13.44563-39.7564-17.16507-25.27209,33.61195-25.27209,33.61195c0,0-24.93169,148.12432-22.27136,178.71809Z" fill="#6c63ff"/><g><path id="uuid-bec7d187-b9e8-45af-a4d8-631a7f6c9387-59" d="M402.99172,366.41695c2.97829,10.40473,10.93886,17.18705,17.77957,15.14891,6.84068-2.03813,9.97007-12.12373,6.98927-22.53174-1.13178-4.17512-3.27968-7.99675-6.26399-11.14513l-13.19434-43.91395-21.16654,7.06483,15.2545,42.5413c-.85453,4.29298-.64825,8.69437,.60152,12.83576,0,0,.00001,.00002,0,.00001Z" fill="#ffaeb0"/><path d="M397.5703,352.2236l-.17733-.47402-35.33397-94.72597-35.63261-82.76638c-1.9477-4.52433-1.71282-9.5993,.64632-13.92457,2.35937-4.32431,6.49868-7.26481,11.35568-8.08325h0c6.63373-1.10868,13.28441,2.09568,16.55052,7.97415l74.09543,179.77411-31.50404,12.22593Z" fill="#6c63ff"/></g><g><path id="uuid-b5812c79-dc32-4dbb-a7bf-2d5ff1d6fd1b-60" d="M232.37362,378.40445c-.35661,10.81672-6.42727,19.33245-13.55832,19.02036-7.13103-.31208-12.6208-9.33288-12.26255-20.15338,.08168-4.32503,1.23495-8.55448,3.36334-12.33448l2.11057-45.8047,22.24949,1.70125-4.44285,44.9747c1.87359,3.95595,2.74466,8.27522,2.54033,12.59624,0,0,0,.00002,0,.00001Z" fill="#ffaeb0"/><path d="M200.64567,359.12704l28.11719-192.40137c1.7373-6.49658,7.4082-11.22314,14.1123-11.76221h0c4.91016-.38818,9.64062,1.45654,12.98145,5.07666,3.34082,3.62109,4.80371,8.48633,4.01562,13.34863l-14.41895,88.94971-11.21875,100.47705-.05664,.50293-33.53223-4.19141Z" fill="#6c63ff"/></g><g><circle cx="293.64104" cy="101.76044" r="31.47655" fill="#ffb6b6"/><path d="M291.12893,59.44242c.91081,.53168,2.13081-.27274,2.42286-1.28613s-.04815-2.08933-.38551-3.08855l-1.69832-5.0302c-1.20449-3.56753-14.43248-.62379-17.0411-3.33914-3.9373-4.09838,1.75504-11.77693-3.87778-11.0216-7.23364,.97-14.37076,4.88694-17.73419,11.36411-3.36343,6.47717-1.93149,15.51515,4.14601,19.55625-8.66177,9.92783-11.68113,20.99205-11.20438,34.1587,.47674,13.16665,14.82517,25.28427,24.18226,34.55965,2.08961-1.26669,3.9893-7.20295,2.84021-9.35946-1.14909-2.15651,.4973-4.6549-.92582-6.64128-1.42312-1.98638-2.61373,1.17653-1.17499-.79857,.90787-1.24632-2.63551-4.11358-1.28602-4.85951,6.52722-3.60802,8.69814-11.74393,12.79766-17.97422,4.94478-7.51489,13.40778-12.60404,22.36386-13.44834,4.9336-.46509,10.14456,.37728,14.18845,3.24149s6.66187,7.98252,5.72413,12.84846c2.42858-2.4659,3.63748-6.07968,3.18151-9.51053s-2.56679-6.60343-5.55514-8.34941c1.81704-6.00887,.26044-12.92081-3.95701-17.57068-4.21744-4.64986-21.3257-3.85791-27.48286-2.63414" fill="#2f2e41"/><path d="M290.17276,82.41654c-8.15495,.88033-14.04307,7.94434-19.01509,14.46794-2.86576,3.76006-5.86761,7.91241-5.79566,12.6395,.07274,4.77922,3.26813,8.87844,4.79526,13.40769,2.49614,7.40319,.06336,16.21128-5.87857,21.2839,5.8713,1.11415,12.21833-3.28815,13.2319-9.17764,1.17992-6.85609-4.01732-13.47326-3.4018-20.40287,.54228-6.10506,5.35332-10.80362,9.44343-15.36836,4.09011-4.56474,7.93143-10.62203,6.04977-16.45514" fill="#2f2e41"/></g><circle cx="302.62682" cy="160.99632" r="11.04392" fill="#e4e5e6"/><g><polygon points="306.59085 622.06298 307.93792 651.31468 306.58887 659.40897 311.31057 668.85234 348.40953 672.89951 350.43311 655.36181 330.87185 645.24394 330.30324 628.7155 306.59085 622.06298" fill="#ffaeb0"/><path d="M336.84147,641.90808l1.99525-44.62242-43.23033-2.99287s10.9825,80.63032,10.9825,84.00295c0,3.37262,64.08002,3.37262,73.72256,2.02358,9.64254-1.34904,6.54609-10.11791,6.54609-10.11791l-39.98771-18.92865-10.02835-9.36469Z" fill="#2f2e43"/></g><g><polygon points="212.24446 591.32032 204.15935 619.46473 200.29087 626.7016 201.74211 637.1594 235.59477 652.86638 243.12447 636.89862 227.82996 621.05273 237.42407 596.17446 212.24446 591.32032" fill="#ffaeb0"/><path d="M236.39546,626.65019l6.72901-39.99159-41.61366-10.38597s-6.18488,65.1272-7.26421,68.32245c-1.07933,3.19525,59.63062,23.70259,69.19777,25.51037s9.43983-7.49086,9.43983-7.49086l-29.75972-25.71597-6.72901-10.24844Z" fill="#2f2e43"/></g><path d="M252.64989,118.29949c-.29667-10.71235,3.51566-26.67173,13.00839-31.64471,3.24003-1.69736,6.82135-3.64049,10.67829-6.6407,5.01535-3.90131,10.67991-7.3727,17.10841-9.00853s13.73442-1.2167,19.00425,2.12896,15.5593,12.21746,12.66836,17.45932c.4923-1.2363,1.98383,4.52498,2.625,2.32779,4.97696-17.05504-2.38902-34.04089-20.66335-38.55398-3.65506-.90266-5.71942-4.3776-7.53825-5.49367-4.62915-2.84052-13.16393-6.20892-22.23868-7.16324,3.38049-7.32605-2.2081-16.06181-10.67605-18.55854s-18.46136,.52235-24.86,6.21-9.56301,13.59401-10.43442,21.37912c-.43883,3.92051-.2505,8.13988,2.36958,11.27803s8.39887,4.48803,11.86737,1.84727c2.60174,15.55914-8.43445,49.44185,7.08108,54.4329h0Z" fill="#6c63ff"/></svg>